<svg xmlns="http://www.w3.org/2000/svg" width="111.705" height="107.035" viewBox="0 0 111.705 107.035"><g transform="translate(-200 -11.705)"><g transform="translate(200 11.705)"><g transform="translate(0 0)"><path d="M293.1,41.911V11.7H200v76.83h18.605V118.74h93.1V41.911ZM204.818,16.523h83.464v13.75H204.818Zm13.787,67.193H204.818V35.091h83.464v6.82H218.605Zm88.282,30.206H223.423V65.3h83.464v48.626Zm0-53.444H223.423V46.729h83.464v13.75Z" transform="translate(-200 -11.705)" fill="#fff"/></g></g><g transform="translate(227.982 51.213)"><g transform="translate(0)"><rect width="4.633" height="4.818" fill="#fff"/></g></g><g transform="translate(237.247 51.213)"><g transform="translate(0)"><rect width="4.67" height="4.818" fill="#fff"/></g></g><g transform="translate(209.377 21.008)"><rect width="4.67" height="4.818" fill="#fff"/></g><g transform="translate(218.679 21.008)"><g transform="translate(0)"><rect width="4.633" height="4.818" fill="#fff"/></g></g></g></svg>