<svg xmlns="http://www.w3.org/2000/svg" width="34.569" height="37.918" viewBox="0 0 34.569 37.918"><path d="M0,0H34.569V37.918H0ZM14.4,7.9h5.762v3.16H14.4Zm0,0h5.762v3.16H14.4Z" fill="none"/><path d="M14.18,25.923V24.16H3.538l-.015,7.053A3.3,3.3,0,0,0,6.568,34.74H27.883a3.3,3.3,0,0,0,3.045-3.527V24.16H20.27v1.763Zm15.225-15.87H23.3V6.527L20.255,3h-6.09L11.12,6.527v3.527H5.045A3.322,3.322,0,0,0,2,13.58v5.29A3.3,3.3,0,0,0,5.045,22.4H14.18V18.87h6.09V22.4h9.135A3.322,3.322,0,0,0,32.45,18.87V13.58A3.322,3.322,0,0,0,29.405,10.053Zm-9.135,0H14.18V6.527h6.09Z" transform="translate(0.06 0.089)" fill="#fff"/></svg>