<svg xmlns="http://www.w3.org/2000/svg" width="37.264" height="28" viewBox="0 0 37.264 28"><g transform="translate(-1236 -1546)"><path d="M38.564,48.656a2.375,2.375,0,0,1-2.946-1.115c-1.688-2.529-3.552-4.943-5.35-7.4-.232-.318-.473-.63-.773-1.025-2.128,2.871-4.253,5.606-6.248,8.45a2.276,2.276,0,0,1-2.794,1.1l8-10.739-7.449-9.7a2.473,2.473,0,0,1,2.952,1.025c1.733,2.532,3.644,4.943,5.549,7.493,1.917-2.541,3.8-4.955,5.588-7.463a2.222,2.222,0,0,1,2.773-1.028c-.975,1.293-1.929,2.565-2.889,3.828-1.3,1.7-2.568,3.427-3.912,5.095a1.045,1.045,0,0,0,.027,1.543C33.579,41.987,36.034,45.286,38.564,48.656ZM1.309,37.748c.214-1.073.357-2.167.654-3.219,1.783-6.37,9.1-9.018,14.118-5.071,2.943,2.315,3.674,5.579,3.528,9.259H3.024c-.25,6.6,4.5,10.587,10.561,8.554a6.282,6.282,0,0,0,4-4.458c.318-1.043.844-1.207,1.825-.91a8.4,8.4,0,0,1-4.019,6.141c-3.567,2.039-8.658,1.379-11.336-1.453a10.266,10.266,0,0,1-2.55-5.974c-.045-.357-.137-.707-.208-1.061Q1.309,38.652,1.309,37.748Zm1.745-.443H18.043c-.1-4.774-3.07-8.165-7.134-8.195C6.451,29.075,3.247,32.386,3.054,37.305Z" transform="translate(1234.7 1521.399)" fill="#ffffff"/><circle cx="0.5" cy="0.5" r="0.5" transform="translate(1254 1546)" fill="#6dff00" opacity="0"/><circle cx="0.5" cy="0.5" r="0.5" transform="translate(1254 1573)" fill="#6dff00" opacity="0"/></g></svg>