<svg xmlns="http://www.w3.org/2000/svg" width="37.321" height="37.321" viewBox="0 0 37.321 37.321"><path d="M0,0H37.321V37.321H0Z" fill="none"/><path d="M28.286,18.79a11,11,0,0,0,.093-1.462,8.983,8.983,0,0,0-.109-1.462l3.157-2.457a.763.763,0,0,0,.187-.949L28.628,7.3a.76.76,0,0,0-.917-.342L23.994,8.449a10.985,10.985,0,0,0-2.519-1.462l-.56-3.95a.752.752,0,0,0-.746-.638H14.2a.737.737,0,0,0-.731.638l-.56,3.95a11.228,11.228,0,0,0-2.519,1.462L6.671,6.956a.742.742,0,0,0-.917.342l-2.97,5.163a.707.707,0,0,0,.187.949l3.157,2.457A8.651,8.651,0,0,0,6.1,18.79L2.939,21.247a.763.763,0,0,0-.187.949l2.986,5.163a.76.76,0,0,0,.917.342l3.717-1.493a10.985,10.985,0,0,0,2.519,1.462l.56,3.95a.764.764,0,0,0,.746.638h5.971a.725.725,0,0,0,.731-.638l.56-3.95a10.666,10.666,0,0,0,2.519-1.462L27.7,27.7a.742.742,0,0,0,.917-.342L31.6,22.2a.72.72,0,0,0-.187-.949Zm-11.1,4.136a5.6,5.6,0,1,1,5.6-5.6A5.615,5.615,0,0,1,17.183,22.927Z" transform="translate(1.478 1.332)" fill="#fff"/></svg>