<svg xmlns="http://www.w3.org/2000/svg" width="111.705" height="108.948" viewBox="0 0 111.705 108.948"><path d="M55.853,0A55.859,55.859,0,0,0,38.2,108.852c2.791.517,3.816-1.212,3.816-2.687,0-1.332-.052-5.731-.076-10.4-15.538,3.379-18.817-6.59-18.817-6.59-2.541-6.456-6.2-8.172-6.2-8.172-5.068-3.467.382-3.4.382-3.4,5.609.394,8.562,5.756,8.562,5.756,4.982,8.538,13.066,6.07,16.253,4.643a11.9,11.9,0,0,1,3.546-7.469c-12.406-1.412-25.447-6.2-25.447-27.6a21.616,21.616,0,0,1,5.755-14.992c-.58-1.407-2.492-7.088.541-14.781,0,0,4.69-1.5,15.364,5.725a52.978,52.978,0,0,1,27.972,0c10.66-7.226,15.344-5.725,15.344-5.725,3.04,7.693,1.128,13.374.548,14.781a21.574,21.574,0,0,1,5.748,14.992c0,21.452-13.066,26.176-25.5,27.558,2,1.733,3.788,5.132,3.788,10.343,0,7.473-.065,13.488-.065,15.327,0,1.487,1.005,3.228,3.836,2.68A55.861,55.861,0,0,0,55.853,0ZM20.919,79.564c-.123.278-.56.361-.957.17s-.633-.56-.5-.839.558-.366.962-.174S21.059,79.285,20.919,79.564Zm2.747,2.451c-.266.247-.787.132-1.14-.258a.854.854,0,0,1-.164-1.161c.275-.247.78-.131,1.146.258S23.945,81.766,23.666,82.015Zm1.885,3.136c-.342.238-.9.015-1.248-.482s-.342-1.092.007-1.331.9-.024,1.249.469S25.9,84.909,25.551,85.152Zm3.188,3.633c-.306.338-.958.247-1.435-.213s-.624-1.09-.317-1.427.966-.243,1.447.214S29.065,88.45,28.738,88.784Zm4.12,1.227c-.135.437-.763.636-1.4.45s-1.045-.7-.918-1.146.762-.648,1.4-.449S32.989,89.566,32.858,90.011Zm4.688.52c.016.46-.521.843-1.185.851s-1.208-.358-1.215-.811.524-.843,1.192-.855S37.546,90.073,37.546,90.531Zm4.606-.177c.08.449-.382.911-1.041,1.034s-1.249-.159-1.331-.6c-.08-.461.389-.922,1.037-1.042S42.068,89.9,42.152,90.354Z" fill="#fff"/></svg>