<svg xmlns="http://www.w3.org/2000/svg" width="32.691" height="46.05" viewBox="0 0 32.691 46.05"><path d="M16.222,9.532h1.9v2.085h2.082V5.391H18.126V7.449h-1.9V5.391H14.141v6.226h2.081Z" transform="translate(-11.142 -5.391)" fill="#ffffff"/><path d="M23.392,11.617h2.081V7.457H27.3V5.391H21.561V7.457h1.831Z" transform="translate(-11.591 -5.391)" fill="#ffffff"/><path d="M30.681,8.533l1.434,2.213h.035L33.58,8.533v3.085h2.074V5.391h-2.17L32.15,7.582,30.815,5.391H28.646v6.226h2.035Z" transform="translate(-12.019 -5.391)" fill="#ffffff"/><path d="M42.215,9.561H39.288V5.391H37.207v6.226h5.008Z" transform="translate(-12.537 -5.391)" fill="#ffffff"/><path d="M10.949,14.926,13.925,48.31l13.361,3.708,13.371-3.706L43.64,14.926H10.949ZM37.183,25.843H21.514l.374,4.193H36.811L35.688,42.61l-8.394,2.325-.006,0L18.9,42.61l-.585-6.577h4.11l.3,3.411,4.561,1.233.006,0h0l4.565-1.233.475-5.31H18.145L17.039,21.751H37.548Z" transform="translate(-10.949 -5.968)" fill="#ffffff"/></svg>