<svg xmlns="http://www.w3.org/2000/svg" width="37.576" height="42.341" viewBox="0 0 37.576 42.341"><path d="M18.788,42.341a3.411,3.411,0,0,1-1.634-.428L11.981,38.84c-.778-.428-.389-.583-.156-.661a9.419,9.419,0,0,0,2.334-1.05.358.358,0,0,1,.389.039l3.968,2.373a.494.494,0,0,0,.467,0L34.5,30.555a.447.447,0,0,0,.233-.428V12.195a.447.447,0,0,0-.233-.428L18.982,2.82a.494.494,0,0,0-.467,0L3,11.767a.488.488,0,0,0-.233.428V30.127A.488.488,0,0,0,3,30.555l4.24,2.45c2.295,1.167,3.734-.194,3.734-1.556v-17.7a.473.473,0,0,1,.467-.467H13.42a.473.473,0,0,1,.467.467v17.7c0,3.073-1.673,4.862-4.59,4.862a6.673,6.673,0,0,1-3.579-.972L1.634,33.005A3.283,3.283,0,0,1,0,30.166V12.233a3.283,3.283,0,0,1,1.634-2.84L17.154.408a3.471,3.471,0,0,1,3.267,0L35.942,9.394a3.283,3.283,0,0,1,1.634,2.84V30.166a3.283,3.283,0,0,1-1.634,2.839L20.422,41.991a3.981,3.981,0,0,1-1.634.35ZM23.572,30.01c-6.807,0-8.207-3.112-8.207-5.757a.473.473,0,0,1,.467-.467h2.023a.4.4,0,0,1,.428.389c.311,2.062,1.206,3.073,5.329,3.073,3.267,0,4.668-.739,4.668-2.49,0-1.011-.389-1.75-5.485-2.256-4.24-.428-6.885-1.361-6.885-4.746,0-3.151,2.645-5.018,7.079-5.018,4.979,0,7.43,1.712,7.741,5.446a.627.627,0,0,1-.117.35.48.48,0,0,1-.311.156H28.279a.456.456,0,0,1-.428-.35C27.384,16.2,26.179,15.5,22.989,15.5c-3.579,0-4.007,1.245-4.007,2.178,0,1.128.506,1.478,5.329,2.1,4.785.622,7.041,1.517,7.041,4.862-.039,3.423-2.839,5.368-7.78,5.368Z" transform="translate(0 0)" fill="#ffffff"/></svg>