<svg xmlns="http://www.w3.org/2000/svg" width="57.288" height="35" viewBox="0 0 57.288 35"><g transform="translate(-387 -1964)"><g transform="translate(387 1971)"><path d="M0,0V19.133H15.926V22.34H28.644V19.133H57.288V0Z" fill="#6dff00"/><path d="M20.636,14.332h-6.3V27.05h6.3V17.539h3.207V27.05H27.05V14.332Z" transform="translate(-11.125 -11.125)"/><path d="M85.5,14.332V30.258h6.414V27.05h6.3V14.332Zm9.511,9.511h-3.1v-6.3h3.1v6.3Z" transform="translate(-66.365 -11.125)"/><path d="M162.968,14.332h-6.3V27.05h6.3V17.539h3.207V27.05h3.207V17.539h3.207V27.05H175.8V14.332Z" transform="translate(-121.605 -11.125)"/></g><circle cx="0.5" cy="0.5" r="0.5" transform="translate(415 1964)" fill="#6dff00" opacity="0"/><path d="M.5,0A.5.5,0,1,1,0,.5.5.5,0,0,1,.5,0Z" transform="translate(415 1998)" fill="#ffffff" opacity="0"/></g></svg>