<svg xmlns="http://www.w3.org/2000/svg" width="38.525" height="30" viewBox="0 0 38.525 30"><g transform="translate(0 4.042)"><g transform="translate(0 0)"><path d="M10.036,10A5.029,5.029,0,0,0,5,15.023V26.752a5.019,5.019,0,0,0,5.036,5.023H38.489a5.029,5.029,0,0,0,5.036-5.023V15.023A5.019,5.019,0,0,0,38.489,10ZM18.4,23.4a3.347,3.347,0,0,1-3.358,3.35H13.383a3.355,3.355,0,0,1-3.358-3.36V18.385a3.347,3.347,0,0,1,3.358-3.36h1.659a3.355,3.355,0,0,1,3.358,3.35H16.725A1.669,1.669,0,0,0,15.052,16.7H13.373A1.67,1.67,0,0,0,11.7,18.375V23.4a1.669,1.669,0,0,0,1.673,1.675h1.678A1.67,1.67,0,0,0,16.725,23.4Zm5.033-8.375a3.35,3.35,0,1,0-.008,6.7h1.659a1.675,1.675,0,1,1,.017,3.35H23.423a1.682,1.682,0,0,1-1.673-1.667v-.019H20.075v.01a3.351,3.351,0,0,0,3.358,3.352h1.659a3.35,3.35,0,1,0,.008-6.7H23.441a1.675,1.675,0,1,1-.017-3.35H25.1a1.68,1.68,0,0,1,1.673,1.675H28.45a3.35,3.35,0,0,0-3.358-3.35Zm10.05,0a3.35,3.35,0,1,0-.008,6.7h1.659a1.675,1.675,0,1,1,.017,3.35H33.473A1.682,1.682,0,0,1,31.8,23.408v-.019H30.125v.01a3.351,3.351,0,0,0,3.358,3.352h1.659a3.35,3.35,0,1,0,.008-6.7H33.491a1.675,1.675,0,1,1-.017-3.35h1.678a1.68,1.68,0,0,1,1.673,1.675H38.5a3.35,3.35,0,0,0-3.358-3.35Z" transform="translate(-5 -10)" fill="#6dff00" fill-rule="evenodd"/></g><circle cx="0.5" cy="0.5" r="0.5" transform="translate(19 24.958)"/><circle cx="0.5" cy="0.5" r="0.5" transform="translate(19 -4.042)"/></g></svg>