<svg xmlns="http://www.w3.org/2000/svg" width="38.004" height="38.004" viewBox="0 0 38.004 38.004"><path d="M37.288,17.309,20.695.717a2.447,2.447,0,0,0-3.461,0L13.788,4.162l4.371,4.371a2.907,2.907,0,0,1,3.681,3.705l4.212,4.212a2.909,2.909,0,1,1-1.744,1.642L20.38,14.165V24.5a2.906,2.906,0,1,1-2.395-.085V13.984a2.877,2.877,0,0,1-.953-.636,2.911,2.911,0,0,1-.628-3.184L12.1,5.855.718,17.232a2.448,2.448,0,0,0,0,3.462L17.311,37.287a2.448,2.448,0,0,0,3.461,0L37.288,20.771a2.449,2.449,0,0,0,0-3.463" transform="translate(-0.001 0)" fill="#6dff00"/></svg>