<svg xmlns="http://www.w3.org/2000/svg" width="22.788" height="52.891" viewBox="0 0 22.788 52.891"><path d="M27.46,62.546l-1.355-.463s.165-6.906-2.313-7.4c-1.652-1.917.264-81.293,6.212-.265a4.833,4.833,0,0,0-2.412,2.776,25.49,25.49,0,0,0-.132,5.354Z" transform="translate(-14.908 -9.655)" fill="#6dff00" fill-rule="evenodd"/><path d="M27.46,62.546l-1.355-.463s.165-6.906-2.313-7.4c-1.652-1.917.264-81.293,6.212-.265a4.833,4.833,0,0,0-2.412,2.776,25.49,25.49,0,0,0-.132,5.354Z" transform="translate(-14.908 -9.655)" fill="#6dff00" fill-rule="evenodd"/><path d="M33.352,44.656s11.863-7.8,9.087-24.025C39.763,8.834,33.451,4.968,32.757,3.48A16.672,16.672,0,0,1,31.27.572l.5,32.814c0,.033-1.025,10.046,1.586,11.269" transform="translate(-20.073 1.56)" fill="#6dff00" fill-rule="evenodd"/><path d="M33.352,44.656s11.863-7.8,9.087-24.025C39.763,8.834,33.451,4.968,32.757,3.48A16.672,16.672,0,0,1,31.27.572l.5,32.814c0,.033-1.025,10.046,1.586,11.269" transform="translate(-20.073 1.56)" fill="#6dff00" fill-rule="evenodd"/><path d="M10.5,44.848S-.632,37.247.029,23.864C.656,10.48,8.521,3.9,10.041,2.714A3.077,3.077,0,0,0,11.132.2c.694,1.487.562,22.24.661,24.685.3,9.418-.529,18.176-1.289,19.96Z" transform="translate(0 1.797)" fill="#6dff00" fill-rule="evenodd"/><path d="M10.5,44.848S-.632,37.247.029,23.864C.656,10.48,8.521,3.9,10.041,2.714A3.077,3.077,0,0,0,11.132.2c.694,1.487.562,22.24.661,24.685.055,1.752.072,3.481.05,5.8-.057,6.638-.72,12.711-1.338,14.163Z" transform="translate(0 1.797)" fill="#6dff00" fill-rule="evenodd"/><rect width="1" height="46" transform="translate(11)" fill="#0a0423"/></svg>