<svg xmlns="http://www.w3.org/2000/svg" width="30.945" height="27.532" viewBox="0 0 30.945 27.532"><path d="M25.443,8.924q-.481-.166-1-.314.084-.345.154-.679c.754-3.66.261-6.609-1.423-7.58-1.614-.931-4.254.04-6.921,2.36q-.385.335-.771.707-.257-.246-.513-.474C12.179.463,9.378-.583,7.7.391,6.084,1.324,5.606,4.1,6.285,7.565q.1.5.229,1.025c-.4.113-.779.232-1.145.36C2.092,10.093,0,11.883,0,13.74c0,1.918,2.246,3.841,5.658,5.008q.4.138.837.262-.14.564-.243,1.1c-.647,3.409-.142,6.115,1.467,7.043,1.661.958,4.45-.027,7.165-2.4q.322-.281.646-.6.42.4.837.763C19,27.188,21.593,28.1,23.2,27.172c1.66-.961,2.2-3.868,1.5-7.406q-.08-.405-.186-.827.294-.087.575-.18c3.548-1.175,5.856-3.075,5.856-5.019,0-1.864-2.16-3.666-5.5-4.816Zm-.769,8.58q-.254.084-.52.163a31.011,31.011,0,0,0-1.567-3.92,31,31,0,0,0,1.506-3.863q.475.137.92.29c2.863.986,4.61,2.443,4.61,3.566,0,1.2-1.886,2.749-4.949,3.764ZM23.4,20.022a11.2,11.2,0,0,1,.149,4.084,2.732,2.732,0,0,1-1.013,1.921c-.975.564-3.061-.169-5.31-2.1q-.387-.333-.778-.71a31.04,31.04,0,0,0,2.594-3.293,30.853,30.853,0,0,0,4.191-.646q.095.382.168.749ZM10.55,25.93a2.732,2.732,0,0,1-2.17.082C7.4,25.449,7,23.275,7.551,20.36q.1-.5.226-1.027a31.093,31.093,0,0,0,4.17.6A32.186,32.186,0,0,0,14.6,23.219q-.3.286-.59.543A11.2,11.2,0,0,1,10.55,25.93ZM6.086,17.5a11.2,11.2,0,0,1-3.609-1.917A2.732,2.732,0,0,1,1.322,13.74C1.322,12.613,3,11.176,5.8,10.2c.34-.119.7-.23,1.065-.335a31.688,31.688,0,0,0,1.508,3.908A32.207,32.207,0,0,0,6.85,17.736q-.395-.114-.764-.239Zm1.5-10.185C7,4.34,7.387,2.1,8.359,1.535c1.035-.6,3.324.255,5.737,2.4q.231.205.464.429a31.674,31.674,0,0,0-2.636,3.262A32.308,32.308,0,0,0,7.8,8.265q-.121-.486-.213-.953Zm13.348,3.3q-.459-.793-.941-1.548c.987.125,1.933.291,2.822.493a28.23,28.23,0,0,1-.99,2.665q-.421-.8-.89-1.61Zm-5.443-5.3a28.274,28.274,0,0,1,1.821,2.2q-.908-.043-1.836-.043T13.651,7.5c.6-.793,1.217-1.529,1.836-2.2Zm-5.478,5.311q-.459.8-.874,1.6c-.385-.913-.714-1.811-.983-2.678.883-.2,1.824-.359,2.805-.482q-.487.76-.949,1.559Zm.977,7.9a28.134,28.134,0,0,1-2.852-.458c.273-.882.61-1.8,1-2.732q.416.8.877,1.6h0q.47.812.972,1.589Zm4.538,3.751c-.627-.676-1.252-1.424-1.862-2.228q.889.035,1.811.035.946,0,1.868-.042a28.123,28.123,0,0,1-1.817,2.235Zm6.31-6.989A28.029,28.029,0,0,1,22.872,18a28.042,28.042,0,0,1-2.887.492q.482-.764.95-1.575t.9-1.64Zm-2.043.979c-.484.839-.98,1.639-1.484,2.4-.918.066-1.867.1-2.834.1s-1.9-.03-2.8-.088c-.524-.766-1.032-1.569-1.513-2.4h0c-.479-.828-.921-1.663-1.32-2.493.4-.832.84-1.668,1.316-2.495h0c.478-.829.981-1.628,1.5-2.389.92-.07,1.864-.106,2.818-.106h0c.958,0,1.9.037,2.823.107.512.755,1.011,1.552,1.491,2.381s.931,1.668,1.334,2.483c-.4.828-.847,1.667-1.33,2.5ZM22.518,1.5c1.036.6,1.439,3.008.788,6.168q-.062.3-.139.615a31.668,31.668,0,0,0-4.138-.654A31.044,31.044,0,0,0,16.413,4.36q.357-.343.712-.653C19.41,1.72,21.545.935,22.518,1.5Zm-7.045,9.481a2.763,2.763,0,1,1-2.763,2.763,2.763,2.763,0,0,1,2.763-2.763Z" transform="translate(0 0)" fill="#6dff00"/></svg>