<svg xmlns="http://www.w3.org/2000/svg" width="26.142" height="24.818" viewBox="0 0 26.142 24.818"><path d="M18.113,17.332a1.869,1.869,0,0,0-.2-3.726h-.066a1.861,1.861,0,0,0-1.8,1.929,1.911,1.911,0,0,0,.532,1.231,11.9,11.9,0,0,1-5.456,5.223,9,9,0,0,1-5.422,1.031,4.624,4.624,0,0,1-3.393-1.963A4.887,4.887,0,0,1,2.046,15.9,7.831,7.831,0,0,1,4.308,13.24c-.133-.432-.333-1.164-.432-1.7C-.948,15.037-.449,19.761,1.015,21.99A6.89,6.89,0,0,0,6.8,24.685a8.177,8.177,0,0,0,2-.233A12.766,12.766,0,0,0,18.113,17.332Zm5.855-4.125A13.509,13.509,0,0,0,13.456,8.616h-.532a1.828,1.828,0,0,0-1.63-1h-.067a1.864,1.864,0,0,0,.067,3.726h.066a1.874,1.874,0,0,0,1.63-1.131h.6a12.678,12.678,0,0,1,7.086,2.162A8.911,8.911,0,0,1,24.2,16.634a4.611,4.611,0,0,1-.067,3.926,4.884,4.884,0,0,1-4.557,2.728,8.508,8.508,0,0,1-3.26-.7c-.366.333-1.031.865-1.5,1.2a10.269,10.269,0,0,0,4.291,1.031,7.222,7.222,0,0,0,6.454-3.526A7.515,7.515,0,0,0,23.968,13.207ZM7.069,17.9a1.869,1.869,0,0,0,1.863,1.8H9a1.864,1.864,0,0,0-.067-3.726H8.865A.567.567,0,0,0,8.633,16,12.19,12.19,0,0,1,6.9,8.616,8.925,8.925,0,0,1,8.865,3.46,5.77,5.77,0,0,1,12.957,1.6c3.526-.067,5.023,4.325,5.123,6.088.432.1,1.164.333,1.663.5C19.344,2.794,16.018,0,12.824,0A7.526,7.526,0,0,0,5.971,5.356,13.61,13.61,0,0,0,7.3,16.933,1.5,1.5,0,0,0,7.069,17.9Z" transform="translate(0 0)" fill="#6dff00"/></svg>